<svg width="24" height="24" viewBox="0 0 24 24" fill="none" xmlns="http://www.w3.org/2000/svg">
    <path d="M14.5 16H9.49999V17H14.5V16Z" fill="#161616" />
    <path d="M13.5 18H10.5V19H13.5V18Z" fill="#161616" />
    <path
        d="M12 5C10.6739 5 9.40214 5.52678 8.46446 6.46447C7.52678 7.40215 6.99999 8.67392 6.99999 10C6.96618 10.7267 7.10538 11.451 7.40614 12.1133C7.7069 12.7757 8.16063 13.3572 8.72999 13.81C9.22999 14.275 9.49999 14.54 9.49999 15H10.5C10.5 14.08 9.94499 13.565 9.40499 13.07C8.93767 12.7121 8.56523 12.2451 8.32028 11.7099C8.07534 11.1747 7.96536 10.5876 7.99999 10C7.99999 8.93913 8.42142 7.92172 9.17157 7.17157C9.92171 6.42143 10.9391 6 12 6C13.0609 6 14.0783 6.42143 14.8284 7.17157C15.5786 7.92172 16 8.93913 16 10C16.034 10.588 15.9233 11.1754 15.6775 11.7107C15.4316 12.2459 15.0582 12.7127 14.59 13.07C14.055 13.57 13.5 14.07 13.5 15H14.5C14.5 14.54 14.765 14.275 15.27 13.805C15.839 13.353 16.2925 12.7724 16.5932 12.1109C16.894 11.4494 17.0334 10.7259 17 10C17 9.34339 16.8707 8.69321 16.6194 8.08658C16.3681 7.47995 15.9998 6.92876 15.5355 6.46447C15.0712 6.00017 14.52 5.63188 13.9134 5.3806C13.3068 5.12933 12.6566 5 12 5Z"
        fill="#161616" />
    <circle cx="12" cy="12" r="11.5" stroke="#161616" />
</svg>