<svg width="24" height="24" viewBox="0 0 24 24" fill="none" xmlns="http://www.w3.org/2000/svg">
    <path
        d="M18 17H16.5V16H18V8H16.5V7H18C18.2651 7.0003 18.5193 7.10576 18.7068 7.29323C18.8942 7.4807 18.9997 7.73488 19 8V16C18.9996 16.2651 18.8942 16.5193 18.7067 16.7067C18.5193 16.8942 18.2651 16.9996 18 17Z"
        fill="#161616" />
    <path
        d="M15.5 13C16.0523 13 16.5 12.5523 16.5 12C16.5 11.4477 16.0523 11 15.5 11C14.9477 11 14.5 11.4477 14.5 12C14.5 12.5523 14.9477 13 15.5 13Z"
        fill="#161616" />
    <path
        d="M12 13C12.5523 13 13 12.5523 13 12C13 11.4477 12.5523 11 12 11C11.4477 11 11 11.4477 11 12C11 12.5523 11.4477 13 12 13Z"
        fill="#161616" />
    <path
        d="M8.5 13C9.05228 13 9.5 12.5523 9.5 12C9.5 11.4477 9.05228 11 8.5 11C7.94772 11 7.5 11.4477 7.5 12C7.5 12.5523 7.94772 13 8.5 13Z"
        fill="#161616" />
    <path
        d="M7.5 17H6C5.73488 16.9997 5.4807 16.8942 5.29323 16.7068C5.10576 16.5193 5.0003 16.2651 5 16V8C5.00026 7.73486 5.10571 7.48066 5.29319 7.29319C5.48066 7.10571 5.73486 7.00026 6 7H7.5V8H6V16H7.5V17Z"
        fill="#161616" />
    <circle cx="12" cy="12" r="11.5" stroke="#161616" />
    <circle cx="12" cy="12" r="11.5" stroke="#161616" />
</svg>