<svg width="24" height="24" viewBox="0 0 24 24" fill="none" xmlns="http://www.w3.org/2000/svg">
    <circle cx="12" cy="12" r="11.5" stroke="#161616" />
    <path
        d="M10 6C10.4945 6 10.9778 6.14662 11.3889 6.42133C11.8 6.69603 12.1205 7.08648 12.3097 7.54329C12.4989 8.00011 12.5484 8.50277 12.452 8.98773C12.3555 9.47268 12.1174 9.91814 11.7678 10.2678C11.4181 10.6174 10.9727 10.8555 10.4877 10.952C10.0028 11.0484 9.50011 10.9989 9.04329 10.8097C8.58648 10.6205 8.19603 10.3 7.92133 9.88893C7.64662 9.4778 7.5 8.99445 7.5 8.5C7.5 7.83696 7.76339 7.20107 8.23223 6.73223C8.70107 6.26339 9.33696 6 10 6ZM10 5C9.30777 5 8.63108 5.20527 8.0555 5.58986C7.47993 5.97444 7.03133 6.52107 6.76642 7.16061C6.50151 7.80015 6.4322 8.50388 6.56725 9.18282C6.7023 9.86175 7.03564 10.4854 7.52513 10.9749C8.01461 11.4644 8.63825 11.7977 9.31718 11.9327C9.99612 12.0678 10.6999 11.9985 11.3394 11.7336C11.9789 11.4687 12.5256 11.0201 12.9101 10.4445C13.2947 9.86892 13.5 9.19223 13.5 8.5C13.5 7.57174 13.1313 6.6815 12.4749 6.02513C11.8185 5.36875 10.9283 5 10 5Z"
        fill="#161616" />
    <path
        d="M15 19H14V16.5C14 15.837 13.7366 15.2011 13.2678 14.7322C12.7989 14.2634 12.163 14 11.5 14H8.5C7.83696 14 7.20107 14.2634 6.73223 14.7322C6.26339 15.2011 6 15.837 6 16.5V19H5V16.5C5 15.5717 5.36875 14.6815 6.02513 14.0251C6.6815 13.3687 7.57174 13 8.5 13H11.5C12.4283 13 13.3185 13.3687 13.9749 14.0251C14.6313 14.6815 15 15.5717 15 16.5V19Z"
        fill="#161616" />
    <path d="M16.5 12.09L15.205 10.795L14.5 11.5L16.5 13.5L20 10L19.295 9.295L16.5 12.09Z" fill="#161616" />
</svg>